<?xml version="1.0" encoding="iso-8859-1"?>
<!-- Uploaded to: SVG Repo, www.svgrepo.com, Generator: SVG Repo Mixer Tools -->
<svg fill="#000000" height="800px" width="800px" version="1.1" id="Layer_1" xmlns="http://www.w3.org/2000/svg" xmlns:xlink="http://www.w3.org/1999/xlink" 
	 viewBox="0 0 481.89 481.89" xml:space="preserve">
<g>
	<g>
		<path d="M48.391,433.441c-1.883-1.888-3.515-3.948-4.865-6.109l-22.598,32.352c0.127,0.203,0.306,0.447,0.557,0.702
			c0.251,0.251,0.494,0.431,0.699,0.557l4.765-3.336l0.002-0.001l7.928-5.55l19.629-13.741
			C52.34,436.962,50.276,435.329,48.391,433.441z"/>
	</g>
</g>
<g>
	<g>
		<path d="M357.283,108.455L55.772,409.8c-0.002,0.001-0.002,0.002-0.002,0.002c-0.273,0.279-0.478,0.657-0.61,1.156l-0.001,0.001
			c-0.678,2.553,0.687,7.191,4.609,11.116c3.918,3.93,8.543,5.284,11.086,4.601c0.007-0.002,0.014-0.001,0.02-0.003l0.003-0.001
			c0.487-0.13,0.864-0.329,1.138-0.604l301.515-301.35L357.283,108.455z"/>
	</g>
</g>
<g>
	<g>
		<path d="M32.304,413.336c-1.241-0.482-2.446-1.083-3.655-1.748c-0.721-0.396-1.437-0.755-2.142-1.214
			c-1.297-0.846-2.526-1.853-3.745-2.909c-0.448-0.388-0.944-0.657-1.379-1.072l-12.57,41.086c0.087,0.178,0.281,0.445,0.523,0.715
			l3.734-5.343l20.271-29.018C32.988,413.71,32.655,413.473,32.304,413.336z"/>
	</g>
</g>
<g>
	<g>
		<path d="M410.42,0.004l-43.637,43.677c0.169,0.176,0.339,0.349,0.508,0.525c5.151,5.358,10.337,10.661,15.522,15.965
			l46.764-46.815C419.426,4.86,413.271,1.233,410.42,0.004z"/>
	</g>
</g>
<g>
	<g>
		<path d="M345.914,97.081L329.67,80.817L28.151,382.156c-0.749,0.749-0.791,2.157-0.753,2.943c0.001,0.01,0.007,0.019,0.007,0.029
			c0.157,3.011,1.932,6.493,4.743,9.303c3.485,3.479,7.187,4.75,9.665,4.756c0.823,0.002,1.51-0.136,2.01-0.378l0.008-0.005
			c0.166-0.166,0.396-0.23,0.575-0.38l-0.002-0.001L345.914,97.081z"/>
	</g>
</g>
<g>
	<g>
		<path d="M441.593,24.075l-47.497,47.544c5.391,5.448,10.809,10.87,16.253,16.268l47.5-47.541
			C452.648,34.791,447.127,29.265,441.593,24.075z"/>
	</g>
</g>
<g>
	<g>
		<path d="M18.03,477.582c-0.049-0.12-0.093-0.239-0.139-0.359c-0.103-0.268-0.222-0.532-0.308-0.801
			c-0.209-0.068-0.401-0.209-0.608-0.285c-0.831-0.309-1.636-0.702-2.437-1.144c-0.388-0.213-0.776-0.392-1.153-0.637
			c-1.144-0.74-2.251-1.583-3.268-2.601c-0.987-0.987-1.797-2.064-2.524-3.172c-0.184-0.28-0.357-0.556-0.524-0.842
			c-0.654-1.12-1.223-2.264-1.612-3.441c-0.002-0.008-0.009-0.015-0.011-0.023c-0.51-0.165-1.01-0.364-1.507-0.581
			c-0.039-0.017-0.079-0.029-0.119-0.045c-0.008-0.004-0.015-0.006-0.023-0.01L0.02,475.833c-0.126,0.404,0.314,2.179,2.088,3.953
			c1.782,1.771,3.541,2.19,3.933,2.085l12.186-3.777C18.152,477.927,18.099,477.753,18.03,477.582z"/>
	</g>
</g>
<g>
	<g>
		<path d="M404.713,104.991c0,0,0-0.004-0.008-0.004c-9.303-9.171-18.537-18.412-27.699-27.731
			c-7.231-7.357-14.431-14.741-21.591-22.2l-14.376,14.388l71.136,71.209l0.342,0.343l14.376-14.387
			C419.442,119.437,412.062,112.226,404.713,104.991z"/>
	</g>
</g>
<g>
	<g>
		<path d="M468.559,52.372l-46.772,46.811c5.474,5.362,10.944,10.726,16.475,16.049l43.628-43.675
			C480.674,68.702,477.054,62.543,468.559,52.372z"/>
	</g>
</g>
<g>
	<g>
		<path d="M74.972,459.898c-1.345-1.468-2.532-3.003-3.565-4.595c-0.201-0.309-0.425-0.604-0.615-0.918
			c-1.057-1.751-1.903-3.549-2.571-5.372c-0.062-0.169-0.181-0.329-0.239-0.498l-27.677,19.371l-6.653,4.657
			c0.278,0.253,0.546,0.445,0.725,0.532l41.047-12.594C75.248,460.296,75.142,460.084,74.972,459.898z"/>
	</g>
</g>
<g>
	<g>
		<path d="M384.896,136.097L83.384,437.441c-1.358,2.532-0.651,7.62,3.997,12.271c2.108,2.111,4.587,3.637,6.963,4.337
			c0.792,0.234,1.573,0.376,2.324,0.417c0.762,0.035,2.199,0.008,2.952-0.75l301.528-301.347L384.896,136.097z"/>
	</g>
</g>
</svg>