<?xml version="1.0" encoding="UTF-8"?>
<svg version="1.1" xmlns="http://www.w3.org/2000/svg" width="133" height="17">
<path d="M0 0 C2.375 1.0625 2.375 1.0625 4 3 C5.07845965 6.88245475 5.39223942 9.0710119 3.8125 12.8125 C1.8836966 15.14036617 0.89710361 16.17225611 -2 17 C-5.82005521 16.92041552 -7.50545553 16.4184607 -10.4375 13.9375 C-12.28509575 10.46401999 -12.33115783 8.59572206 -11.6015625 4.8046875 C-11 3 -11 3 -9.375 1 C-6.05513764 -0.39783678 -3.56669336 -0.38214572 0 0 Z M-5 4 C-7.26839983 5.83265325 -7.26839983 5.83265325 -7.1875 8.5625 C-7.27003323 10.94689723 -7.27003323 10.94689723 -6 12 C-4.33382885 12.04063832 -2.66611905 12.042721 -1 12 C-0.32198966 9.09926819 -0.32198966 9.09926819 0 6 C-0.66 5.34 -1.32 4.68 -2 4 C-2.99 4 -3.98 4 -5 4 Z " fill="#333333" transform="translate(29,0)"/>
<path d="M0 0 C1.98 0 3.96 0 6 0 C6.83719383 2.29032311 7.6698929 4.58210957 8.5 6.875 C8.73847656 7.52597656 8.97695313 8.17695313 9.22265625 8.84765625 C11 13.7734375 11 13.7734375 11 16 C9.35 16 7.7 16 6 16 C6 15.34 6 14.68 6 14 C4.02 14 2.04 14 0 14 C0 14.66 0 15.32 0 16 C-1.65 16 -3.3 16 -5 16 C-3.41078475 10.63904723 -1.81027062 5.29156027 0 0 Z M3 7 C2.67 7.99 2.34 8.98 2 10 C2.66 10 3.32 10 4 10 C3.67 9.01 3.34 8.02 3 7 Z " fill="#333333" transform="translate(52,0)"/>
<path d="M0 0 C2.4375 1.875 2.4375 1.875 4 4 C4 4.66 4 5.32 4 6 C0.80097361 6.08886184 -1.92677456 5.91058531 -5 5 C-5.74957157 8.47147842 -5.74957157 8.47147842 -6 12 C-5.278125 11.67 -4.55625 11.34 -3.8125 11 C-0.98302573 9.99396471 1.02895466 9.83022598 4 10 C3.42655063 12.86724686 3.1385485 13.8614515 1 16 C-1.90297416 16.94150513 -3.64282934 17.08504063 -6.625 16.375 C-9.65622768 14.62007871 -10.67542538 13.23784907 -12 10 C-11.92733979 6.4396496 -11.38506043 4.56278062 -9.375 1.625 C-6.0464384 -0.65243688 -3.9491615 -0.56416593 0 0 Z " fill="#333333" transform="translate(12,0)"/>
<path d="M0 0 C3.4375 0.5625 3.4375 0.5625 5.875 2.0625 C8.08258899 5.59464239 8.1041744 8.5041196 7.4375 12.5625 C6.375 15 6.375 15 4.4375 16.5625 C1.0625 17.5625 1.0625 17.5625 -2.5625 17.5625 C-5.36439446 15.79608828 -7.07774911 14.53200178 -8.5625 11.5625 C-9.09757099 7.5494676 -8.89301628 6.02321967 -6.5 2.6875 C-3.5625 0.5625 -3.5625 0.5625 0 0 Z M-3.5625 3.5625 C-5.71752531 6.79503796 -6.03106135 7.81400923 -5.5625 11.5625 C-4.5625 13.5625 -4.5625 13.5625 -2.5625 14.5625 C0.55743606 14.48707659 0.55743606 14.48707659 3.4375 13.5625 C4.81875018 10.79999964 4.62829306 8.61518901 4.4375 5.5625 C2.55090125 3.25587401 2.55090125 3.25587401 -0.5625 3.25 C-1.5525 3.353125 -2.5425 3.45625 -3.5625 3.5625 Z " fill="#333333" transform="translate(100.5625,-0.5625)"/>
<path d="M0 0 C3.63 0 7.26 0 11 0 C11 5.625 11 5.625 8.5 8.8125 C8.0359375 9.41707031 7.571875 10.02164062 7.09375 10.64453125 C6.7328125 11.09183594 6.371875 11.53914062 6 12 C7.65 12.33 9.3 12.66 11 13 C11 13.99 11 14.98 11 16 C7.37 16 3.74 16 0 16 C0.47610659 11.00088076 2.03162219 8.02167317 5 4 C3.35 4 1.7 4 0 4 C0 2.68 0 1.36 0 0 Z " fill="#333333" transform="translate(35,0)"/>
<path d="M0 0 C8.37094358 -0.48527209 8.37094358 -0.48527209 11.1875 1.6875 C12 4 12 4 11.25 6.625 C10.8375 7.40875 10.425 8.1925 10 9 C9.67 9.66 9.34 10.32 9 11 C9.99 12.485 9.99 12.485 11 14 C11 14.99 11 15.98 11 17 C8.00675737 15.9024777 7.15389099 15.32317108 5.75 12.375 C5.5025 11.59125 5.255 10.8075 5 10 C4.34 10 3.68 10 3 10 C3 11.98 3 13.96 3 16 C2.01 16 1.02 16 0 16 C0 10.72 0 5.44 0 0 Z M3 3 C3 4.65 3 6.3 3 8 C4.65 7.67 6.3 7.34 8 7 C8 5.68 8 4.36 8 3 C6.35 3 4.7 3 3 3 Z " fill="#333333" transform="translate(110,0)"/>
<path d="M0 0 C3.5 0.25 3.5 0.25 5.5 2.25 C5.5 3.24 5.5 4.23 5.5 5.25 C4.51 5.25 3.52 5.25 2.5 5.25 C2.5 4.59 2.5 3.93 2.5 3.25 C0.85 3.25 -0.8 3.25 -2.5 3.25 C-0.18055212 6.72917182 1.76369964 7.54429766 5.5 9.25 C5.6875 12.125 5.6875 12.125 5.5 15.25 C2.5 17.25 2.5 17.25 -0.5625 17.1875 C-3.5 16.25 -3.5 16.25 -4.875 13.6875 C-5.08125 12.883125 -5.2875 12.07875 -5.5 11.25 C-4.51 11.25 -3.52 11.25 -2.5 11.25 C-2.17 11.91 -1.84 12.57 -1.5 13.25 C0.52463255 13.90213292 0.52463255 13.90213292 2.5 14.25 C2.5 12.93 2.5 11.61 2.5 10.25 C0.19 9.59 -2.12 8.93 -4.5 8.25 C-5.125 5.375 -5.125 5.375 -5.5 2.25 C-3.5 0.25 -3.5 0.25 0 0 Z " fill="#333333" transform="translate(73.5,-0.25)"/>
<path d="M0 0 C2.97 0 5.94 0 9 0 C9 0.99 9 1.98 9 3 C7.02 3 5.04 3 3 3 C3 4.32 3 5.64 3 7 C4.98 7 6.96 7 9 7 C8.67 7.99 8.34 8.98 8 10 C6.35 10 4.7 10 3 10 C3 11.32 3 12.64 3 14 C4.98 14 6.96 14 9 14 C9 14.99 9 15.98 9 17 C2.84765625 17.09765625 2.84765625 17.09765625 1 17 C0 16 0 16 -0.09765625 12.40234375 C-0.0909822 10.91403133 -0.07902183 9.42573568 -0.0625 7.9375 C-0.05798828 7.17888672 -0.05347656 6.42027344 -0.04882812 5.63867188 C-0.0370068 3.75908129 -0.01907078 1.87953101 0 0 Z " fill="#333333" transform="translate(123,0)"/>
<path d="M0 0 C3.63 0 7.26 0 11 0 C11 0.99 11 1.98 11 3 C9.68 3 8.36 3 7 3 C7 7.29 7 11.58 7 16 C6.01 16 5.02 16 4 16 C4 11.71 4 7.42 4 3 C2.68 2.67 1.36 2.34 0 2 C0 1.34 0 0.68 0 0 Z " fill="#333333" transform="translate(80,0)"/>
</svg>
